<svg width="100" height="100" viewBox="0 0 100 100" fill="none" xmlns="http://www.w3.org/2000/svg">
<circle cx="50" cy="50" r="50" fill="#60463B"/>
<path d="M22.186 65.272C21.3473 65.272 20.4293 65.2493 19.432 65.204C18.4347 65.1587 17.46 65.102 16.508 65.034C15.5787 64.966 14.7287 64.8867 13.958 64.796V62.314C14.774 62.382 15.624 62.45 16.508 62.518C17.4147 62.586 18.2873 62.6427 19.126 62.688C19.9873 62.7333 20.7127 62.756 21.302 62.756C22.5033 62.756 23.4667 62.7107 24.192 62.62C24.9173 62.5067 25.5293 62.3027 26.028 62.008C26.368 61.804 26.6173 61.532 26.776 61.192C26.9347 60.852 27.0253 60.4553 27.048 60.002C27.0933 59.5487 27.116 59.0613 27.116 58.54C27.116 57.7693 27.0933 57.146 27.048 56.67C27.0027 56.194 26.878 55.8313 26.674 55.582C26.4927 55.31 26.1867 55.1173 25.756 55.004C25.3253 54.868 24.7473 54.766 24.022 54.698L18.208 54.052C17.12 53.916 16.2473 53.6893 15.59 53.372C14.9327 53.032 14.434 52.6127 14.094 52.114C13.7767 51.5927 13.5613 50.9807 13.448 50.278C13.3347 49.5527 13.278 48.748 13.278 47.864C13.278 46.436 13.4593 45.2913 13.822 44.43C14.2073 43.5687 14.7627 42.9113 15.488 42.458C16.2133 42.0047 17.086 41.71 18.106 41.574C19.1487 41.4153 20.3387 41.336 21.676 41.336C22.5373 41.336 23.4213 41.3587 24.328 41.404C25.2347 41.4493 26.0847 41.5173 26.878 41.608C27.694 41.676 28.3627 41.7667 28.884 41.88V44.294C28.2947 44.2033 27.6147 44.124 26.844 44.056C26.0733 43.988 25.28 43.9427 24.464 43.92C23.6707 43.8747 22.9113 43.852 22.186 43.852C20.9393 43.852 19.9307 43.9087 19.16 44.022C18.3893 44.1353 17.7773 44.3393 17.324 44.634C16.8253 44.9287 16.508 45.348 16.372 45.892C16.2587 46.4133 16.202 47.048 16.202 47.796C16.202 48.68 16.2587 49.3713 16.372 49.87C16.508 50.346 16.78 50.686 17.188 50.89C17.6187 51.0713 18.2533 51.2073 19.092 51.298L24.77 51.944C25.586 52.012 26.3 52.1253 26.912 52.284C27.5467 52.42 28.0907 52.658 28.544 52.998C28.9973 53.338 29.3373 53.8253 29.564 54.46C29.7 54.7773 29.802 55.1287 29.87 55.514C29.938 55.8993 29.9833 56.33 30.006 56.806C30.0513 57.2593 30.074 57.7693 30.074 58.336C30.074 59.628 29.9493 60.7047 29.7 61.566C29.4507 62.4047 29.0993 63.0733 28.646 63.572C28.1927 64.0707 27.6373 64.4447 26.98 64.694C26.3227 64.9433 25.586 65.102 24.77 65.17C23.9767 65.238 23.1153 65.272 22.186 65.272ZM44.8616 65.272C43.2069 65.272 41.8016 65.1813 40.6456 65C39.4896 64.796 38.5376 64.4447 37.7896 63.946C37.0643 63.4473 36.4863 62.756 36.0556 61.872C35.6476 60.9653 35.3529 59.8207 35.1716 58.438C35.0129 57.0327 34.9336 55.3213 34.9336 53.304C34.9336 51.2867 35.0129 49.5867 35.1716 48.204C35.3529 46.7987 35.6589 45.654 36.0896 44.77C36.5203 43.8633 37.1096 43.1607 37.8576 42.662C38.6056 42.1633 39.5463 41.8233 40.6796 41.642C41.8356 41.438 43.2296 41.336 44.8616 41.336C45.6323 41.336 46.4596 41.37 47.3436 41.438C48.2276 41.506 49.0889 41.5853 49.9276 41.676C50.7889 41.7667 51.5596 41.88 52.2396 42.016V44.396C51.5143 44.2827 50.7776 44.192 50.0296 44.124C49.2816 44.0333 48.5789 43.9653 47.9216 43.92C47.2869 43.8747 46.7429 43.852 46.2896 43.852C44.8843 43.852 43.6829 43.886 42.6856 43.954C41.7109 44.022 40.9063 44.2033 40.2716 44.498C39.6369 44.7927 39.1496 45.28 38.8096 45.96C38.4696 46.6173 38.2203 47.5353 38.0616 48.714C37.9256 49.8927 37.8576 51.4227 37.8576 53.304C37.8576 54.9587 37.9029 56.3527 37.9936 57.486C38.0843 58.5967 38.2656 59.5033 38.5376 60.206C38.8323 60.9087 39.2289 61.4527 39.7276 61.838C40.2489 62.2233 40.9289 62.484 41.7676 62.62C42.6289 62.7333 43.6829 62.79 44.9296 62.79C45.4056 62.79 45.9269 62.7787 46.4936 62.756C47.0603 62.7333 47.6156 62.6993 48.1596 62.654C48.7036 62.6087 49.1569 62.5633 49.5196 62.518V54.902H44.2156V52.42H52.3416V64.592C51.5936 64.728 50.7663 64.8527 49.8596 64.966C48.9756 65.0567 48.0916 65.1247 47.2076 65.17C46.3463 65.238 45.5643 65.272 44.8616 65.272ZM58.7262 65V41.608H61.6502V65H58.7262Z" fill="#FAFFD8"/>
<path d="M68.4547 65V41.608H79.3347C80.876 41.608 82.1 41.846 83.0067 42.322C83.9134 42.798 84.5594 43.478 84.9447 44.362C85.33 45.2233 85.5227 46.266 85.5227 47.49C85.5227 48.4873 85.3867 49.3713 85.1147 50.142C84.8427 50.89 84.412 51.502 83.8227 51.978C83.256 52.454 82.4967 52.794 81.5447 52.998V53.134C82.7007 53.338 83.5847 53.712 84.1967 54.256C84.8087 54.7773 85.228 55.4347 85.4547 56.228C85.6814 57.0213 85.7947 57.894 85.7947 58.846C85.7947 59.662 85.6927 60.444 85.4887 61.192C85.3074 61.94 84.9787 62.5973 84.5027 63.164C84.0494 63.7307 83.392 64.184 82.5307 64.524C81.6694 64.8413 80.5587 65 79.1987 65H68.4547ZM71.3787 62.484H78.5187C79.6294 62.484 80.502 62.3593 81.1367 62.11C81.7714 61.838 82.2134 61.4073 82.4627 60.818C82.7347 60.206 82.8707 59.424 82.8707 58.472C82.8707 57.4973 82.7234 56.7153 82.4287 56.126C82.1567 55.514 81.7034 55.0833 81.0687 54.834C80.434 54.562 79.584 54.426 78.5187 54.426H71.3787V62.484ZM71.3787 51.876H78.3827C79.3347 51.876 80.1167 51.74 80.7287 51.468C81.3634 51.196 81.828 50.7767 82.1227 50.21C82.44 49.6207 82.5987 48.8953 82.5987 48.034C82.5987 47.082 82.474 46.3227 82.2247 45.756C81.998 45.1893 81.5787 44.7813 80.9667 44.532C80.3547 44.26 79.4934 44.124 78.3827 44.124H71.3787V51.876Z" fill="#0B7A75"/>
</svg>
